<svg viewBox="0 0 354 71" fill="none" xmlns="http://www.w3.org/2000/svg" style="fill:#ffffff"><path d="M330.912 70.56C328.8 70.56 326.784 70.336 324.864 69.888C323.008 69.44 321.248 68.736 319.584 67.776C317.984 66.752 316.544 65.504 315.264 64.032L315.169 45.102C315.168 45.0121 315.168 44.9221 315.168 44.832L315.169 45.102C315.198 47.9463 315.677 50.6403 316.608 53.184C317.632 55.744 319.232 57.824 321.408 59.424C323.584 61.024 326.4 61.824 329.856 61.824C333.376 61.824 336.16 61.024 338.208 59.424C340.256 57.824 341.728 55.712 342.624 53.088C343.52 50.464 343.968 47.648 343.968 44.64C343.968 41.504 343.488 38.656 342.528 36.096C341.632 33.536 340.128 31.488 338.016 29.952C335.968 28.416 333.216 27.648 329.76 27.648C326.624 27.648 323.968 28.512 321.792 30.24C319.616 31.904 317.952 34.048 316.8 36.672L315 41H305.376V2.112H315.264V26.208C317.056 23.776 319.456 21.92 322.464 20.64C325.472 19.36 328.576 18.72 331.776 18.72C336.832 18.72 340.992 19.872 344.256 22.176C347.52 24.416 349.92 27.488 351.456 31.392C353.056 35.232 353.856 39.616 353.856 44.544C353.856 49.408 353.024 53.824 351.36 57.792C349.696 61.696 347.168 64.8 343.776 67.104C340.448 69.408 336.16 70.56 330.912 70.56Z" fill="current"></path><path d="M305 70L315 42H324.686L315 70H305Z" fill="#DFFF1B"></path><path d="M267.879 70.56C265.575 70.56 263.335 70.272 261.159 69.696C259.047 69.056 257.159 68.128 255.495 66.912C253.831 65.632 252.487 64.064 251.463 62.208C250.503 60.288 250.023 58.048 250.023 55.488C250.023 52.416 250.599 49.888 251.751 47.904C252.967 45.856 254.567 44.288 256.551 43.2C258.535 42.048 260.807 41.248 263.367 40.8C265.991 40.288 268.711 40.032 271.527 40.032H283.911C283.911 37.536 283.527 35.36 282.759 33.504C281.991 31.584 280.775 30.112 279.111 29.088C277.511 28 275.367 27.456 272.679 27.456C271.079 27.456 269.543 27.648 268.071 28.032C266.663 28.352 265.447 28.896 264.423 29.664C263.399 30.432 262.695 31.456 262.311 32.736H251.943C252.327 30.304 253.191 28.224 254.535 26.496C255.879 24.704 257.543 23.232 259.527 22.08C261.511 20.928 263.623 20.096 265.863 19.584C268.167 19.008 270.503 18.72 272.871 18.72C280.167 18.72 285.415 20.864 288.615 25.152C291.879 29.376 293.511 35.2 293.511 42.624V69.984H284.967L284.583 63.552C283.111 65.536 281.351 67.04 279.303 68.064C277.319 69.088 275.335 69.76 273.351 70.08C271.367 70.4 269.543 70.56 267.879 70.56ZM269.415 62.208C272.295 62.208 274.823 61.728 276.999 60.768C279.175 59.744 280.871 58.304 282.087 56.448C283.303 54.528 283.911 52.288 283.911 49.728V47.616H274.887C273.031 47.616 271.207 47.68 269.415 47.808C267.687 47.872 266.087 48.128 264.615 48.576C263.207 48.96 262.055 49.632 261.159 50.592C260.327 51.552 259.911 52.928 259.911 54.72C259.911 56.448 260.359 57.856 261.255 58.944C262.151 60.032 263.335 60.864 264.807 61.44C266.279 61.952 267.815 62.208 269.415 62.208Z" fill="current"></path><path d="M229.328 41.0556V1.98401H239.328V41.0556H229.328Z" fill="current"></path><path d="M229.314 70L239.314 42H249L239.314 70H229.314Z" fill="#DFFF1B"></path><path d="M207.501 69.984V19.392H217.389V69.984H207.501ZM212.397 12.672C210.477 12.672 208.909 12.096 207.693 10.944C206.541 9.728 205.965 8.192 205.965 6.336C205.965 4.48 206.573 2.976 207.789 1.824C209.005 0.608 210.541 0 212.397 0C214.125 0 215.629 0.608 216.909 1.824C218.253 2.976 218.925 4.48 218.925 6.336C218.925 8.192 218.285 9.728 217.005 10.944C215.789 12.096 214.253 12.672 212.397 12.672Z" fill="current"></path><path d="M185.376 69.984V2.112H195.264V69.984H185.376Z" fill="current"></path><path d="M150.749 70.56C145.501 70.56 141.053 69.504 137.405 67.392C133.757 65.216 130.973 62.176 129.053 58.272C127.197 54.368 126.269 49.856 126.269 44.736C126.269 39.552 127.228 35.04 129.148 31.2C131.068 27.296 133.853 24.256 137.501 22.08C141.149 19.84 145.597 18.72 150.845 18.72C156.093 18.72 160.541 19.84 164.189 22.08C167.837 24.256 170.589 27.296 172.445 31.2C174.301 35.104 175.229 39.648 175.229 44.832C175.229 49.888 174.269 54.368 172.349 58.272C170.493 62.176 167.74 65.216 164.092 67.392C160.508 69.504 156.061 70.56 150.749 70.56ZM150.749 61.728C154.205 61.728 156.989 60.96 159.101 59.424C161.277 57.888 162.877 55.84 163.901 53.28C164.925 50.656 165.437 47.808 165.437 44.736C165.437 41.664 164.925 38.848 163.901 36.288C162.877 33.728 161.277 31.68 159.101 30.144C156.989 28.544 154.205 27.744 150.749 27.744C147.357 27.744 144.572 28.544 142.396 30.144C140.22 31.68 138.62 33.728 137.596 36.288C136.636 38.848 136.157 41.664 136.157 44.736C136.157 47.872 136.636 50.72 137.596 53.28C138.62 55.84 140.22 57.888 142.396 59.424C144.572 60.96 147.357 61.728 150.749 61.728Z" fill="current"></path><path d="M71.001 69.984V19.392H80.409L80.889 26.496C82.169 24.64 83.705 23.168 85.497 22.08C87.289 20.928 89.209 20.096 91.257 19.584C93.305 19.008 95.289 18.72 97.209 18.72C102.073 18.72 105.881 19.776 108.633 21.888C111.449 23.936 113.433 26.72 114.585 30.24C115.801 33.696 116.409 37.632 116.409 42.048V69.984H106.425V44.064C106.425 42.016 106.297 40 106.041 38.016C105.785 36.032 105.241 34.272 104.409 32.736C103.641 31.136 102.521 29.888 101.049 28.992C99.577 28.032 97.593 27.552 95.097 27.552C92.025 27.552 89.433 28.384 87.321 30.048C85.209 31.712 83.609 33.952 82.521 36.768C81.433 39.584 80.889 42.752 80.889 46.272V69.984H71.001Z" fill="current"></path><path d="M0 69.984L25.632 2.112H38.784L64.32 69.984H53.376L48.384 56.352H15.936L10.944 69.984H0ZM19.296 47.232H45.024L32.16 11.808L19.296 47.232Z" fill="current"></path></svg>